<?xml version="1.0" standalone="no"?>
<!DOCTYPE svg PUBLIC "-//W3C//DTD SVG 20010904//EN"
 "http://www.w3.org/TR/2001/REC-SVG-20010904/DTD/svg10.dtd">
<svg version="1.0" xmlns="http://www.w3.org/2000/svg"
 width="1024.000000pt" height="1024.000000pt" viewBox="0 0 1024.000000 1024.000000"
 preserveAspectRatio="xMidYMid meet">
<metadata>
Created by potrace 1.11, written by Peter Selinger 2001-2013
</metadata>
<g transform="translate(0.000000,1024.000000) scale(0.100000,-0.100000)"
fill="#000000" stroke="none">
<path d="M2659 10236 c-2 -2 -80 -7 -174 -10 -93 -4 -186 -8 -205 -10 -19 -2
-69 -7 -110 -11 -89 -7 -151 -16 -315 -41 -452 -72 -856 -274 -1179 -592 -127
-124 -291 -334 -352 -448 -6 -11 -27 -50 -47 -86 -69 -126 -152 -343 -171
-445 -2 -15 -9 -44 -15 -63 -17 -56 -65 -351 -78 -485 -10 -104 -10 -5745 0
-5850 30 -310 102 -634 183 -822 79 -185 218 -419 301 -508 10 -11 26 -31 35
-44 9 -13 43 -51 76 -85 193 -199 362 -328 594 -449 93 -49 273 -123 320 -132
10 -2 21 -6 26 -8 6 -4 188 -47 267 -63 33 -7 137 -23 190 -29 28 -4 57 -8 65
-10 8 -3 53 -7 100 -11 47 -3 101 -7 120 -9 148 -16 667 -20 2815 -20 2153 0
2653 4 2820 20 22 2 67 6 100 9 192 17 364 47 585 101 208 51 470 179 671 326
46 34 89 67 94 73 6 7 20 19 33 28 43 29 184 170 256 257 64 75 179 236 212
296 96 172 152 301 191 435 29 99 80 325 88 390 3 25 9 79 15 120 22 168 24
203 37 470 11 206 10 5000 0 5205 -4 88 -9 176 -11 195 -2 19 -7 73 -10 120
-4 47 -9 92 -11 100 -2 8 -6 38 -9 65 -11 99 -47 282 -83 415 -130 487 -457
928 -903 1219 -108 70 -310 170 -421 209 -78 28 -291 84 -364 97 -97 16 -218
34 -275 40 -36 4 -73 9 -82 10 -9 2 -59 7 -110 10 -51 4 -120 9 -153 12 -66 6
-5110 15 -5116 9z"/>
</g>
</svg>
